HIERARCHY
ROOT Hips
{
	OFFSET	0.000000	0.000000	0.000000
	CHANNELS 6 Xposition Yposition Zposition Zrotation Xrotation Yrotation
	JOINT LeftHip
	{
		OFFSET	4.740440	-3.195970	-0.322709
		CHANNELS 3 Zrotation Xrotation Yrotation
		JOINT LeftKnee
		{
			OFFSET	-1.605680	-15.592300	1.005510
			CHANNELS 3 Zrotation Xrotation Yrotation
			JOINT LeftAnkle
			{
				OFFSET	-0.632401	-16.421000	-1.413730
				CHANNELS 3 Zrotation Xrotation Yrotation
				End Site
				{
					OFFSET	0.008423	-2.933000	-1.684880
				}
			}
		}
	}
	JOINT RightHip
	{
		OFFSET	-4.740440	-3.195970	-0.322709
		CHANNELS 3 Zrotation Xrotation Yrotation
		JOINT RightKnee
		{
			OFFSET	1.605680	-15.592300	1.005510
			CHANNELS 3 Zrotation Xrotation Yrotation
			JOINT RightAnkle
			{
				OFFSET	0.632401	-16.421000	-1.413730
				CHANNELS 3 Zrotation Xrotation Yrotation
				End Site
				{
					OFFSET	-0.008423	-2.933000	-1.684880
				}
			}
		}
	}
	JOINT Chest
	{
		OFFSET	0.000000	3.468200	0.078401
		CHANNELS 3 Zrotation Xrotation Yrotation
		JOINT LeftCollar
		{
			OFFSET	3.857650	15.070700	-0.011583
			CHANNELS 3 Zrotation Xrotation Yrotation
			JOINT LeftShoulder
			{
				OFFSET	3.979720	-1.940530	-0.165223
				CHANNELS 3 Zrotation Xrotation Yrotation
				JOINT LeftElbow
				{
					OFFSET	0.615844	-10.986600	-0.673886
					CHANNELS 3 Zrotation Xrotation Yrotation
					JOINT LeftWrist
					{
						OFFSET	0.826843	-10.854500	1.034220
						CHANNELS 3 Zrotation Xrotation Yrotation
						End Site
						{
							OFFSET	-1.679080	-8.456540	0.936217
						}
					}
				}
			}
		}
		JOINT RightCollar
		{
			OFFSET	-3.857650	15.070700	-0.011583
			CHANNELS 3 Zrotation Xrotation Yrotation
			JOINT RightShoulder
			{
				OFFSET	-3.979720	-1.940530	-0.165223
				CHANNELS 3 Zrotation Xrotation Yrotation
				JOINT RightElbow
				{
					OFFSET	-0.615845	-10.986600	-0.673886
					CHANNELS 3 Zrotation Xrotation Yrotation
					JOINT RightWrist
					{
						OFFSET	-0.826843	-10.854500	1.034220
						CHANNELS 3 Zrotation Xrotation Yrotation
						End Site
						{
							OFFSET	1.679080	-8.456540	0.936217
						}
					}
				}
			}
		}
		JOINT Neck
		{
			OFFSET	0.000000	15.101400	0.055730
			CHANNELS 3 Zrotation Xrotation Yrotation
			JOINT Head
			{
				OFFSET	0.000000	4.185120	1.488260
				CHANNELS 3 Zrotation Xrotation Yrotation
				End Site
				{
					OFFSET	0.000000	7.773420	-0.106016
				}
			}
		}
	}
}
MOTION
Frames:    17
Frame Time: 0.016667
16.077021	36.135464	133.776047	-163.389618	175.123322	-73.189674	13.929124	-1.946793	-3.766446	-12.131148	33.202969	8.140450	-3.376047	-17.697691	15.100312	-15.568723	10.944402	9.389128	11.459248	34.423500	19.629230	3.085393	-10.527264	12.440767	-10.999166	4.490806	2.759901	0.554315	-15.531109	-13.398643	-7.432135	-28.084677	-26.640013	38.716324	-132.287201	46.168903	5.230334	-13.213663	24.430017	-7.079132	-2.327172	-9.752847	-9.225839	7.204022	9.162879	-19.948849	-117.662766	-23.176344	-1.103599	-4.956868	-14.868202	-13.235850	-14.828973	0.639717	-3.792789	-11.607766	-22.083324	
16.094433	36.104343	133.565628	-163.400970	175.184250	-74.390724	13.840500	-1.518079	-3.316824	-13.011178	33.279678	9.120845	-2.811284	-18.158442	15.292587	-16.208328	10.115529	9.136704	12.030825	35.678513	18.839760	3.066969	-10.177106	11.526144	-11.169290	4.927044	1.465601	0.252977	-15.562805	-13.355716	-6.013409	-28.511595	-25.221458	38.563911	-132.407730	46.117355	5.276048	-13.183314	24.500431	-7.156242	-2.826278	-8.533484	-8.638139	8.067543	7.990031	-20.118727	-117.473000	-23.168337	-0.433370	-5.415541	-15.050308	-13.709423	-15.015630	0.693004	-2.966563	-12.249206	-21.129408	
15.973016	36.085564	133.209351	-163.201065	175.470963	-77.982826	13.304880	-0.249545	-2.349603	-14.088586	32.891094	11.727966	-2.187433	-18.601377	15.736515	-17.745808	7.723821	8.015182	13.937008	39.778366	16.121309	2.017429	-9.820746	8.017234	-11.343552	5.038361	2.531534	0.011025	-15.573533	-13.358513	-6.599248	-28.513330	-25.934155	38.125389	-132.643509	45.980724	5.381441	-13.160045	24.711931	-7.678926	-2.266877	-9.563121	-7.846473	7.589196	8.980670	-20.368353	-117.350929	-23.291754	-2.705194	-4.102590	-14.942719	-14.074986	-15.092048	0.756353	-3.599368	-11.718636	-22.141201	
15.947800	36.072132	133.075470	-163.012131	175.592361	-79.137711	13.073921	0.215484	-2.177359	-14.423763	32.876274	12.602231	-1.706511	-18.839083	16.001698	-18.100117	7.044129	7.560713	14.653013	41.186958	15.054132	1.315833	-9.827847	6.553418	-11.416969	5.314785	2.453336	-0.077125	-15.577259	-13.380431	-6.462692	-28.614170	-25.785572	37.960629	-132.675308	45.913990	5.368940	-13.147719	24.760670	-7.768587	-2.235209	-9.507361	-7.642114	7.605348	8.961302	-19.066597	-116.279930	-21.816109	-1.989395	-4.612942	-15.375125	-14.205297	-15.085569	0.758146	-3.555317	-11.752500	-22.141968	
15.839334	36.025261	132.619919	-162.340546	176.158478	-82.472733	12.427053	1.493878	-1.667871	-15.234148	33.021744	15.110026	-0.927819	-19.643150	16.747068	-18.835875	5.288471	5.907819	17.244808	45.142612	11.149673	-2.878238	-8.937180	1.921357	-11.546886	6.177589	2.074619	-0.287222	-15.477468	-13.498132	-6.052124	-28.859875	-25.363152	37.524193	-132.708176	45.752094	5.332399	-13.122743	24.942497	-7.874737	-2.197863	-9.339878	-7.492215	7.559740	8.998460	-21.095913	-117.129646	-24.004719	-3.332570	-3.694951	-15.281171	-14.342907	-14.842234	0.652118	-3.379247	-11.832732	-21.910360	
15.599945	35.998337	132.493561	-161.444366	176.962433	-85.685356	12.778028	2.951071	0.471136	-15.376084	33.099960	15.844233	-0.500335	-19.870796	16.982609	-18.529552	4.746355	7.430267	18.113873	46.333580	9.786047	-4.693333	-8.112150	0.477156	-11.208675	6.622441	4.129673	-0.308714	-15.399759	-13.568316	-5.955795	-28.931879	-25.241381	36.076427	-133.681442	47.068939	4.858517	-12.001411	22.509840	-7.870778	-2.170979	-9.317000	-7.582931	7.492005	9.057159	-21.245247	-117.063950	-24.187351	-3.350568	-3.686985	-15.323969	-14.326699	-14.689711	0.558474	-3.292113	-11.865612	-21.781578	
15.714154	35.955196	132.096634	-161.148575	177.287613	-86.750069	11.885612	3.348372	-0.406104	-15.653250	33.512020	17.513910	0.038859	-20.711933	17.747040	-19.039953	4.012444	3.200515	20.513109	49.939270	5.243924	-8.495840	-7.059617	-3.002650	-11.574227	7.419633	1.538995	-0.431031	-15.082161	-13.792898	-5.613272	-29.038536	-24.959530	36.395805	-133.025345	46.359997	4.897774	-12.615127	23.831459	-7.843798	-2.112365	-9.203709	-8.065681	7.242121	9.175728	-21.845497	-116.916351	-24.896353	-3.166527	-3.749880	-15.185362	-14.190169	-14.141357	0.309754	-2.954778	-11.898408	-21.441710	
15.692815	35.935387	131.979523	-160.892944	177.638168	-87.816956	11.840022	3.778526	0.047954	-15.758068	33.676743	17.990105	0.408354	-21.029398	18.052914	-19.035177	3.783315	2.507463	21.326130	51.061684	3.545605	-9.309426	-6.927505	-3.538532	-11.540871	7.676718	1.413707	-0.502281	-14.972869	-13.879929	-5.478487	-29.053484	-24.871355	35.681221	-133.433762	47.158096	4.578547	-12.097636	22.564344	-7.850375	-2.089188	-9.187473	-8.267156	7.137736	9.206119	-22.043863	-116.870094	-25.142290	-3.046283	-3.804044	-15.074629	-14.168593	-13.934028	0.155196	-2.760289	-11.920989	-21.284821	
15.621830	35.873581	131.590668	19.687586	1.217518	88.928085	11.749235	4.925252	1.484407	-16.154497	34.116558	19.551569	0.878834	-21.913151	18.772362	-18.922035	3.123217	0.601362	24.024466	54.378017	-1.079645	-10.781402	-6.176555	-4.152659	-11.369101	8.199656	1.091087	-0.689969	-14.569099	-14.036190	-5.066209	-29.075224	-24.569002	36.028622	-132.898804	46.600880	4.471433	-12.584348	23.995243	-7.909024	-2.041591	-9.083064	-8.908145	6.870127	9.208379	-22.511667	-116.794159	-25.733742	-2.760168	-3.912375	-14.700585	-14.071375	-13.261561	-0.326184	-2.220713	-11.960964	-20.851187	
15.396773	35.837048	131.424698	20.219835	0.122222	85.677124	12.175805	6.115649	3.975906	-16.322206	34.276413	20.156189	1.234495	-22.220377	19.030125	-18.303671	2.631708	2.246157	25.201628	55.448154	-2.516233	-11.011561	-5.842302	-4.256611	-10.950187	8.317934	3.213956	-0.745306	-14.419076	-14.074481	-4.909028	-29.058504	-24.454397	35.417213	-133.438919	47.464481	4.313283	-12.982203	25.388130	-7.935802	-2.026650	-9.045940	-9.097549	6.782340	9.198722	-22.614763	-116.772888	-25.879372	-2.691940	-3.937783	-14.574800	-14.833445	-11.656346	-3.158529	-0.689644	-13.373253	-18.201313	
15.467952	35.744621	131.030350	20.474611	-0.575073	83.506973	11.597663	6.685499	4.237377	-16.894428	34.769890	22.048229	1.552342	-23.112730	19.705910	-18.585806	2.551604	0.015687	29.531649	58.144112	-6.907308	-11.239922	-4.226213	-4.511726	-11.158944	8.638672	1.812450	-0.827273	-13.947052	-14.099734	-4.526712	-28.967585	-24.153757	35.772606	-133.033768	46.882088	4.115671	-12.895453	25.470482	-7.943964	-1.973321	-8.935839	-9.880784	6.992647	8.006151	-24.430355	-117.640381	-28.184803	-2.622858	-4.036751	-14.375755	-14.360189	-11.714502	-2.301537	-0.927429	-12.663608	-19.113428	
15.370349	35.697708	130.880020	20.618099	-1.233745	81.387093	11.644268	7.235457	5.694552	-17.035496	35.000469	22.672194	1.614339	-23.444998	19.920559	-18.334726	2.299078	0.673962	31.089861	58.909592	-8.364754	-11.212674	-3.463407	-4.613591	-11.028202	8.598492	2.791056	-0.839244	-13.807436	-14.114527	-4.413898	-28.925079	-24.067694	35.253105	-133.609421	47.740173	3.957722	-12.784763	25.506090	-7.935224	-1.954508	-8.912625	-10.202220	7.409490	6.792951	-25.952610	-118.570061	-30.086731	-2.599318	-4.090044	-14.322499	-14.726841	-10.962404	-3.752865	-0.108575	-13.216732	-17.792116	
15.449225	35.581947	130.491592	20.757250	-1.973338	79.287994	11.103687	7.543725	5.857554	-17.710648	35.644791	24.735750	1.823154	-24.341301	20.535664	-18.701458	2.721060	-1.462328	36.087238	60.907619	-13.147719	-10.795383	-0.821985	-5.103644	-11.212736	8.825350	1.440082	-0.853927	-13.372383	-14.108954	-4.003102	-28.801184	-23.732742	35.542137	-133.320267	47.174606	3.796834	-12.676077	25.536890	-7.852269	-1.839451	-8.819017	-10.189862	6.891670	7.684043	-24.615149	-117.643181	-28.376118	-2.560221	-4.183635	-14.281549	-14.257838	-11.095680	-2.823637	-0.532004	-12.605083	-18.885668	
15.360453	35.545506	130.319519	20.777628	-2.741245	77.262917	11.261519	7.994005	7.190428	-17.941605	35.826141	25.432379	1.836225	-24.645943	20.740614	-18.345026	2.656928	-0.870026	37.692501	61.419411	-14.846359	-10.635646	0.016849	-5.298125	-10.984634	8.712136	2.345614	-0.839698	-13.235591	-14.119346	-3.850914	-28.758112	-23.626287	35.475552	-133.392410	47.252716	3.685028	-13.094742	26.699825	-7.984270	-1.455575	-9.880802	-10.190181	6.940711	7.467859	-26.128708	-118.617340	-30.098776	-2.566303	-4.196634	-14.297401	-14.184148	-10.932426	-2.919116	-0.492158	-12.624921	-18.844696	
15.479900	35.446247	129.983719	20.559887	-3.528620	75.300072	10.838996	7.940166	7.145233	-18.506880	36.458805	27.678797	1.618472	-25.550240	21.170588	-18.789646	4.238931	-4.383804	39.735744	62.892422	-16.974447	-10.050327	2.013246	-5.601197	-11.150439	8.595768	0.958497	-0.715993	-12.850531	-14.196914	-3.349104	-28.633135	-23.255938	35.223267	-133.629318	47.487961	3.466129	-12.534649	25.553106	-7.681956	-1.278733	-9.752303	-10.070617	6.522787	8.264846	-24.552828	-117.583511	-28.220522	-2.723517	-4.168921	-14.451804	-13.838052	-10.509154	-3.205613	-0.455686	-12.726688	-18.651621	
15.414458	35.430706	129.815201	20.183159	-4.388031	73.339745	11.179516	8.032340	8.400106	-18.706100	36.653393	28.532907	1.487412	-25.833988	21.230379	-18.495417	4.804185	-5.147165	38.597794	63.484989	-15.537287	-9.740787	2.470537	-5.611943	-10.731966	8.202678	1.771281	-0.659614	-12.746455	-14.200661	-4.949948	-28.249096	-25.271709	35.784534	-132.706940	46.314171	3.327964	-13.004428	26.669836	-7.669349	-0.931836	-10.750640	-9.954276	6.586253	8.062476	-26.077326	-118.396072	-29.815716	-2.839220	-4.147368	-14.534136	-13.720882	-10.407320	-3.306562	-0.447654	-12.744103	-18.547102	
15.502343	35.347775	129.476105	19.578592	-5.172240	71.437126	10.976707	7.483883	8.027536	-19.638220	37.173416	31.328047	1.257842	-26.602621	21.516054	-18.199238	5.263849	-5.928896	44.843472	63.679726	-23.229450	-8.238469	3.589315	-5.456124	-10.768686	7.831707	0.400573	-0.513291	-12.563022	-14.275427	-3.632571	-28.364462	-23.831257	35.333916	-133.439789	47.305939	3.260166	-12.481046	25.645418	-7.127987	-1.073422	-9.632603	-9.717713	6.648611	7.886373	-24.591551	-117.242615	-28.063116	-3.334443	-3.951066	-14.883803	-13.403842	-10.173635	-3.499615	-0.341578	-12.767010	-18.326216	
